<svg width="1535" height="1587" viewBox="0 0 1535 1587" fill="none" xmlns="http://www.w3.org/2000/svg">
<g clip-path="url(#clip0_140_428)">
<path d="M416.511 552.444C414.428 560.99 413.325 569.908 413.324 579.077V737.896L267.075 737.898V1059.55C267.074 1095.59 237.313 1124.8 200.601 1124.8H98.4893C61.7775 1124.8 31.9842 1095.59 31.9834 1059.55V147.542C31.9921 84.4868 84.1032 33.3574 148.344 33.3574H1133.73C1170.44 33.3574 1200.2 62.6019 1200.2 98.6376V156.781C1200.2 192.816 1170.44 222.029 1133.73 222.029H869.197V391.554C869.14 408.556 868.203 439.291 866.385 464.861H862.893H620.994M416.511 552.444H267.075V303.589C267.075 258.549 304.283 222.037 350.166 222.029H627.031L627.063 388.814V389.898C627.063 408.63 625.039 439.648 620.994 464.861M416.511 552.444C428.748 502.23 474.793 464.868 529.684 464.861H612.765H620.994" stroke="black" stroke-width="28.5"/>
<path d="M959.77 941.868L1105.77 1106.91L1109.28 1110.83C1142.24 1081.81 1175.56 1038.83 1194.58 1007.87L1195.86 1005.77C1226.83 954.989 1250.57 916.068 1250.57 823.089V557.062L1249.76 464.861H866.385H862.893H620.994H612.765H529.684C474.793 464.868 428.748 502.23 416.511 552.444C414.428 560.99 413.325 569.908 413.324 579.077V737.896L413.324 1491.09C413.333 1527.12 413.245 1556.34 413.245 1556.34H648.591C648.591 1556.34 648.438 1527.11 648.448 1491.09V1169.44C667.474 1169.44 689.111 1169.54 711.933 1169.64C764.505 1169.88 823.816 1170.15 873.781 1169.32L872.845 1168.26L710.122 983.979L709.268 983.979M959.77 941.868C961.501 939.487 963.12 937.056 964.602 934.583C966.327 931.651 968.354 928.381 970.575 924.8C985.275 901.093 1008.44 863.742 1008.44 820.348L1008.4 653.564H753.35H731.539C722.991 653.566 714.744 654.831 706.983 657.18M959.77 941.868L706.983 657.18M706.983 657.18C673.083 667.441 648.448 698.384 648.448 735.033V912.773M648.448 912.773V915.081V983.979L709.268 983.979M648.448 912.773L709.268 983.979" stroke="black" stroke-width="28.5"/>
<path fill-rule="evenodd" clip-rule="evenodd" d="M706.982 657.18L959.77 941.868L1105.77 1106.91L1109.28 1110.83L1121.94 1124.98L1506.24 1556.34H1213.47L873.781 1169.32L872.844 1168.26L710.121 983.979H709.267L648.447 912.773V735.033C648.447 698.383 673.082 667.44 706.982 657.18Z" stroke="black" stroke-width="28.5"/>
</g>
<defs>
<clipPath id="clip0_140_428">
<rect width="1535" height="1587" fill="white"/>
</clipPath>
</defs>
</svg>
