<svg width="1474" height="1523" viewBox="0 0 1474 1523" fill="none" xmlns="http://www.w3.org/2000/svg">
<g clip-path="url(#clip0_115_493)">
<path fill-rule="evenodd" clip-rule="evenodd" d="M1168.2 65.6376C1168.2 29.6019 1138.44 0.357422 1101.73 0.357422H116.344C52.1032 0.357422 -0.00787374 51.4868 -0.0166016 114.542V1026.55C-0.0157785 1062.59 29.7775 1091.8 66.4893 1091.8H168.601C205.313 1091.8 235.074 1062.59 235.075 1026.55V704.898L381.324 704.896V546.077C381.325 536.908 382.428 527.99 384.511 519.444H235.075V270.589C235.075 225.549 272.283 189.037 318.166 189.029H595.031L595.063 355.814V356.898C595.063 375.63 593.039 406.648 588.994 431.861H830.893H834.385C836.203 406.291 837.14 375.556 837.197 358.554V189.029H1101.73C1138.44 189.029 1168.2 159.816 1168.2 123.781V65.6376Z" fill="#E5E5E5"/>
<path fill-rule="evenodd" clip-rule="evenodd" d="M381.324 704.896V546.077C381.325 536.908 382.428 527.99 384.511 519.444C396.748 469.23 442.793 431.868 497.684 431.861H580.765H588.994H830.893H834.385H1217.76L1218.57 524.062V790.089C1218.57 883.068 1194.83 921.989 1163.86 972.774L1162.58 974.867C1143.56 1005.83 1110.24 1048.81 1077.28 1077.83L1073.77 1073.91L927.77 908.868C929.501 906.487 931.12 904.056 932.602 901.583C934.327 898.651 936.354 895.381 938.575 891.8C953.275 868.093 976.436 830.742 976.436 787.348L976.404 620.564H721.35H699.539C690.991 620.566 682.744 621.831 674.983 624.18C641.083 634.441 616.448 665.384 616.448 702.033V879.773V882.081V950.979L677.268 950.979L678.122 950.979L840.845 1135.26L841.781 1136.32C791.816 1137.15 732.505 1136.88 679.933 1136.64C657.111 1136.54 635.474 1136.44 616.448 1136.44V1458.09C616.438 1494.11 616.591 1523.34 616.591 1523.34H381.245C381.245 1523.34 381.333 1494.12 381.324 1458.09L381.324 704.896Z" fill="white"/>
<path fill-rule="evenodd" clip-rule="evenodd" d="M674.982 624.18L927.77 908.868L1073.77 1073.91L1077.28 1077.83L1089.94 1091.98L1474.24 1523.34H1181.47L841.781 1136.32L840.844 1135.26L678.121 950.979H677.267L616.447 879.773V702.033C616.447 665.383 641.082 634.44 674.982 624.18Z" fill="#E5E5E5"/>
</g>
<defs>
<clipPath id="clip0_115_493">
<rect width="1474" height="1523" fill="white"/>
</clipPath>
</defs>
</svg>
